<?xml version="1.0" encoding="utf-8"?>
<!-- Svg Vector Icons : http://www.onlinewebfonts.com/icon -->
<!DOCTYPE svg PUBLIC "-//W3C//DTD SVG 1.1//EN" "http://www.w3.org/Graphics/SVG/1.1/DTD/svg11.dtd">
<svg version="1.1" xmlns="http://www.w3.org/2000/svg" xmlns:xlink="http://www.w3.org/1999/xlink" x="0px" y="0px" viewBox="0 0 1000 1000" enable-background="new 0 0 1000 1000" xml:space="preserve">
<metadata> Svg Vector Icons : http://www.onlinewebfonts.com/icon </metadata>
<g><g transform="translate(0.000000,511.000000) scale(0.100000,-0.100000)"><path d="M4570.6,5063.1c-1295.8-132.8-2426-717.4-3261.9-1688.2C346.1,2259-76.9,738.5,168.3-716.7c38.8-228.9,153.3-676.5,222.8-862.5c102.2-277.9,243.2-580.4,267.7-574.3c12.3,4.1,938.1,594.7,2058.1,1314.2l2037.7,1308v2305.4v2303.3l-55.2-4.1C4666.7,5073.3,4609.5,5067.2,4570.6,5063.1z"/><path d="M5285.9,2774.1V468.7L7333.8-778c1126.1-684.7,2054-1250.8,2064.2-1252.9c22.5-10.2,124.7,222.8,222.8,506.9c441.5,1277.4,357.7,2636.5-239.1,3854.6c-549.8,1120-1516.5,2000.9-2685.5,2440.3c-402.6,153.3-766.4,235-1301.9,296.3l-108.3,12.3V2774.1z"/><path d="M5285.9-2515.2v-2344.2l139,14.3c981,96,1868,457.8,2640.6,1079.1c224.8,181.9,600.9,568.2,778.7,801.2c175.8,230.9,314.7,437.4,302.5,447.6c-10.2,8.2-3676.8,2237.9-3783.1,2301.3l-77.7,45V-2515.2z"/><path d="M2843.6-1403.4C1809.5-2067.6,955.2-2619.5,945-2629.7c-42.9-40.9,349.5-541.6,664.2-846.1c780.7-756.2,1739.3-1216.1,2797.9-1348.9c139-16.4,275.9-30.7,300.4-30.7h47v2329.9c0,1281.4-6.1,2329.9-14.3,2329.9C4730-195.5,3877.8-739.2,2843.6-1403.4z"/></g></g>
</svg>